<?xml version="1.0" encoding="UTF-8" standalone="no"?>
<svg
   xmlns:dc="http://purl.org/dc/elements/1.1/"
   xmlns:cc="http://creativecommons.org/ns#"
   xmlns:rdf="http://www.w3.org/1999/02/22-rdf-syntax-ns#"
   xmlns:svg="http://www.w3.org/2000/svg"
   xmlns="http://www.w3.org/2000/svg"
   xmlns:sodipodi="http://sodipodi.sourceforge.net/DTD/sodipodi-0.dtd"
   xmlns:inkscape="http://www.inkscape.org/namespaces/inkscape"
   id="LAPS"
   width="106.753"
   height="106.576"
   viewBox="0 0 106.753 106.576"
   version="1.1"
   sodipodi:docname="LAPS.svg"
   inkscape:version="1.0.1 (0767f8302a, 2020-10-17)">
  <metadata
     id="metadata17">
    <rdf:RDF>
      <cc:Work
         rdf:about="">
        <dc:format>image/svg+xml</dc:format>
        <dc:type
           rdf:resource="http://purl.org/dc/dcmitype/StillImage" />
      </cc:Work>
    </rdf:RDF>
  </metadata>
  <defs
     id="defs15" />
  <sodipodi:namedview
     pagecolor="#ffffff"
     bordercolor="#666666"
     borderopacity="1"
     objecttolerance="10"
     gridtolerance="10"
     guidetolerance="10"
     inkscape:pageopacity="0"
     inkscape:pageshadow="2"
     inkscape:window-width="2560"
     inkscape:window-height="1376"
     id="namedview13"
     showgrid="false"
     inkscape:zoom="7.8723168"
     inkscape:cx="38.671625"
     inkscape:cy="56.853691"
     inkscape:window-x="1920"
     inkscape:window-y="30"
     inkscape:window-maximized="1"
     inkscape:current-layer="LAPS"
     inkscape:document-rotation="0" />
  <g
     id="Ellipse_1"
     data-name="Ellipse 1"
     fill="rgba(0,0,0,0)"
     stroke="#fff"
     stroke-linecap="round"
     stroke-width="5">
    <circle
       cx="53.288"
       cy="53.288"
       r="53.288"
       stroke="none"
       id="circle2" />
    <circle
       cx="53.288"
       cy="53.288"
       fill="none"
       id="circle4"
       r="50.788"
       style="stroke:#1940ff;stroke-opacity:1;fill:none;fill-opacity:1" />
  </g>
  <path
     id="Pfad_15"
     data-name="Pfad 15"
     d="m -130.73968,-170.32106 3.37968,0.0221 2.174,-0.07 2.174,-0.124 2.174,-0.141 2.174,-0.194 2.174,-0.265 2.174,-0.353 2.174,-0.476 2.174,-0.617 2.174,-0.829 2.174,-1.058 c 0.74859,-0.41319 1.47432,-0.86651 2.174,-1.358 0.74,-0.53 1.464,-1.111 2.174,-1.729 0.74,-0.67 1.464,-1.393 2.174,-2.152 0.74,-0.829 1.464,-1.693 2.174,-2.628 0.74,-0.97 1.464,-2.011 2.174,-3.086 l 2.174,-3.51 2.174,-3.863 2.174,-4.074 1.448,-2.734 2.174,-4.023 2.174,-3.757 2.174,-3.387 c 0.708,-1.024 1.43,-2.011 2.174,-2.928 0.708,-0.882 1.43,-1.693 2.174,-2.469 0.685765,-0.70556 1.411636,-1.371 2.174,-1.993 0.688662,-0.5806 1.414908,-1.1151 2.174,-1.6 0.702876,-0.45958 1.428463,-0.88345 2.174,-1.27 l 2.174,-0.97 2.174,-0.741 2.174,-0.564 2.174,-0.423 2.174,-0.335 2.174,-0.229 2.174,-0.194 2.174,-0.124 2.174,-0.106 1.809,-0.053 h 2.813"
     transform="translate(141.415,250.844)"
     fill="none"
     stroke="#fff"
     stroke-linecap="round"
     stroke-width="5"
     style="stroke:#1940ff;stroke-opacity:1"
     sodipodi:nodetypes="cccccccccccccccccccccccccccccccccccccccc" />
  <path
     id="Pfad_19"
     data-name="Pfad 19"
     d="m 22.277981,93.354157 1.633763,0.148381 2.086,-0.067 2.086,-0.112 2.086,-0.134 2.086,-0.184 2.086,-0.252 2.086,-0.337 2.086,-0.45 2.086,-0.587 2.086,-0.787 2.086,-1.007 c 0.71795,-0.39267 1.41429,-0.82362 2.086,-1.291 0.711,-0.5 1.407,-1.056 2.086,-1.643 0.711,-0.637 1.407,-1.325 2.086,-2.046 0.711,-0.787 1.407,-1.61 2.086,-2.5 0.711,-0.922 1.407,-1.912 2.086,-2.935 l 2.086,-3.337 2.086,-3.673 2.086,-3.874 1.392,-2.6 2.086,-3.824 2.086,-3.571 2.086,-3.219 c 0.679,-0.973 1.375,-1.912 2.086,-2.784 0.679,-0.838 1.375,-1.61 2.086,-2.347 0.658267,-0.67287 1.354754,-1.30725 2.086,-1.9 0.661114,-0.55386 1.357952,-1.06363 2.086,-1.526 0.679,-0.45 1.392,-0.838 2.086,-1.207 l 2.086,-0.922 2.086,-0.7 2.086,-0.537 2.086,-0.4 2.086,-0.318 2.086,-0.218 2.086,-0.184 2.086,-0.112 2.086,-0.1 1.738996,-0.051 2.13945,-0.119453"
     fill="none"
     stroke="#fff"
     stroke-linecap="round"
     stroke-width="5"
     opacity="0.6"
     style="stroke:#1940ff;stroke-opacity:1"
     sodipodi:nodetypes="cccccccccccccccccccccccccccccccccccccccc" />
  <path
     id="Pfad_20"
     data-name="Pfad 20"
     d="m 37.452604,101.68941 3.211695,-0.0894 1.695,-0.056 1.7,-0.1 1.695,-0.112 1.695,-0.152 1.7,-0.208 1.695,-0.277 1.695,-0.373 1.695,-0.483004 1.695,-0.65 1.695,-0.83 c 0.583784,-0.323824 1.149611,-0.679011 1.695,-1.064 0.578,-0.414 1.143,-0.871 1.695,-1.355 0.578,-0.525 1.143,-1.092 1.695,-1.686 0.578,-0.65 1.143,-1.327 1.695,-2.059 0.578,-0.761 1.143,-1.576 1.695,-2.419 l 1.695,-2.751 1.7,-3.026 1.695,-3.193 1.13,-2.142 1.695,-3.151 1.7,-2.944 1.695,-2.653 c 0.552,-0.8 1.117,-1.576 1.695,-2.294 0.552,-0.691 1.117,-1.327 1.695,-1.935 0.536108,-0.553289 1.10372,-1.075157 1.7,-1.563 0.536698,-0.455875 1.102931,-0.875789 1.695,-1.257 0.547861,-0.360035 1.113584,-0.692126 1.695,-0.995 l 1.695,-0.761 1.7,-0.581 1.695,-0.447 1.695,-0.335 1.695,-0.262 1.695,-0.18 1.695,-0.152 1.695,-0.1 1.695001,-0.083 1.407,-0.041 1.44096,-0.103504"
     fill="none"
     stroke="#fff"
     stroke-linecap="round"
     stroke-width="5"
     opacity="0.3"
     style="stroke:#1940ff;stroke-opacity:1"
     sodipodi:nodetypes="cccccccccccccccccccccccccccccccccccccccc" />
  <path
     id="Pfad_21"
     data-name="Pfad 21"
     d="m -131.34,-174.284 3.742,-0.1 2.041,-0.065 2.041,-0.112 2.041,-0.13 2.041,-0.18 2.041,-0.245 2.041,-0.327 2.041,-0.442 2.041,-0.572 2.041,-0.769 2.041,-0.981 c 0.7024,-0.38316 1.38371,-0.80376 2.041,-1.26 0.7,-0.491 1.377,-1.03 2.041,-1.6 0.7,-0.621 1.377,-1.292 2.041,-1.995 0.7,-0.769 1.377,-1.573 2.041,-2.436 0.7,-0.9 1.377,-1.864 2.041,-2.862 l 2.041,-3.259 2.041,-3.582 2.041,-3.778 1.361,-2.535 2.041,-3.729 2.041,-3.484 2.041,-3.14 c 0.665,-0.949 1.346,-1.864 2.041,-2.715 0.665,-0.818 1.346,-1.573 2.041,-2.289 0.644321,-0.65464 1.325781,-1.27166 2.041,-1.848 0.646969,-0.54022 1.328774,-1.03729 2.041,-1.488 0.665,-0.442 1.361,-0.818 2.041,-1.178 l 2.041,-0.9 2.041,-0.687 2.041,-0.524 2.041,-0.392 2.041,-0.311 2.041,-0.212 2.041,-0.18 2.041,-0.112 2.041,-0.1 1.7,-0.049 1.364032,0.088"
     transform="translate(134.81,237.714)"
     fill="none"
     stroke="#fff"
     stroke-linecap="round"
     stroke-width="5"
     opacity="0.6"
     style="stroke:#1940ff;stroke-opacity:1"
     sodipodi:nodetypes="cccccccccccccccccccccccccccccccccccccccc" />
  <path
     id="Pfad_22"
     data-name="Pfad 22"
     d="m -131.34,-184.019 3.015,-0.08 1.645,-0.053 1.645,-0.092 1.645,-0.11 1.645,-0.145 1.645,-0.2 1.645,-0.263 1.645,-0.356 1.645,-0.461 1.645,-0.618 1.645,-0.79 c 0.56608,-0.30833 1.1152,-0.64682 1.645,-1.014 0.561,-0.4 1.109,-0.829 1.645,-1.29 0.561,-0.5 1.109,-1.039 1.645,-1.606 0.561,-0.619 1.109,-1.264 1.645,-1.962 0.561,-0.723 1.109,-1.5 1.645,-2.3 l 1.645,-2.62 1.645,-2.883 1.645,-3.041 1.1,-2.04 1.645,-3 1.645,-2.8 1.645,-2.527 c 0.536,-0.763 1.084,-1.5 1.645,-2.185 0.536,-0.663 1.084,-1.264 1.645,-1.842 0.519309,-0.52717 1.068552,-1.02399 1.645,-1.488 0.521439,-0.43562 1.070958,-0.83649 1.645,-1.2 0.531007,-0.34515 1.080128,-0.66161 1.645,-0.948 l 1.645,-0.723 1.645,-0.552 1.645,-0.421 1.645,-0.316 1.645,-0.25 1.645,-0.171 1.645,-0.145 1.645,-0.092 1.645,-0.08 1.371,-0.04 2.116533,0.32145"
     transform="translate(133.991,229.296)"
     fill="none"
     stroke="#fff"
     stroke-linecap="round"
     stroke-width="5"
     opacity="0.3"
     style="stroke:#1940ff;stroke-opacity:1"
     sodipodi:nodetypes="cccccccccccccccccccccccccccccccccccccccc" />
</svg>
