<?xml version="1.0" encoding="UTF-8" standalone="no"?>
<svg
   xmlns:dc="http://purl.org/dc/elements/1.1/"
   xmlns:cc="http://creativecommons.org/ns#"
   xmlns:rdf="http://www.w3.org/1999/02/22-rdf-syntax-ns#"
   xmlns:svg="http://www.w3.org/2000/svg"
   xmlns="http://www.w3.org/2000/svg"
   xmlns:sodipodi="http://sodipodi.sourceforge.net/DTD/sodipodi-0.dtd"
   xmlns:inkscape="http://www.inkscape.org/namespaces/inkscape"
   id="e2e16f07-c08d-4c73-859c-14fba73875a7"
   data-name="Layer 1"
   width="765.83927"
   height="536.7767"
   viewBox="0 0 765.83927 536.7767"
   version="1.1"
   sodipodi:docname="undraw_Spreadsheet_re_cn18.svg"
   inkscape:version="1.0.1 (0767f8302a, 2020-10-17)">
  <metadata
     id="metadata65">
    <rdf:RDF>
      <cc:Work
         rdf:about="">
        <dc:format>image/svg+xml</dc:format>
        <dc:type
           rdf:resource="http://purl.org/dc/dcmitype/StillImage" />
      </cc:Work>
    </rdf:RDF>
  </metadata>
  <defs
     id="defs63" />
  <sodipodi:namedview
     pagecolor="#ffffff"
     bordercolor="#666666"
     borderopacity="1"
     objecttolerance="10"
     gridtolerance="10"
     guidetolerance="10"
     inkscape:pageopacity="0"
     inkscape:pageshadow="2"
     inkscape:window-width="2560"
     inkscape:window-height="1376"
     id="namedview61"
     showgrid="false"
     inkscape:zoom="1.5630336"
     inkscape:cx="382.91965"
     inkscape:cy="268.38834"
     inkscape:window-x="1920"
     inkscape:window-y="30"
     inkscape:window-maximized="1"
     inkscape:current-layer="e2e16f07-c08d-4c73-859c-14fba73875a7" />
  <path
     d="M 643.67499,449.04503 H 113.18052 a 7.18,7.18 0 0 1 -7.172,-7.172 V 113.30292 h 544.83845 v 328.57013 a 7.18,7.18 0 0 1 -7.17198,7.17198 z"
     fill="#e6e6e6"
     id="path2" />
  <path
     d="M 628.11972,428.51183 H 128.73593 a 7.258,7.258 0 0 1 -7.25,-7.25 V 150.67247 a 7.25835,7.25835 0 0 1 7.25,-7.25 h 499.38379 a 7.258,7.258 0 0 1 7.25,7.25 v 270.58936 a 7.25772,7.25772 0 0 1 -7.25,7.25 z"
     fill="#ffffff"
     id="path4" />
  <path
     d="M 650.61461,123.4491 H 105.77634 v -16.78255 a 7.18,7.18 0 0 1 7.172,-7.171996 h 530.49429 a 7.18,7.18 0 0 1 7.172,7.171996 z"
     fill="#1940ff"
     id="path6" />
  <circle
     cx="123.3724"
     cy="111.73183"
     r="4.2834201"
     fill="#ffffff"
     id="circle8" />
  <circle
     cx="139.6312"
     cy="111.73183"
     r="4.2834201"
     fill="#ffffff"
     id="circle10" />
  <circle
     cx="155.89"
     cy="111.73183"
     r="4.2834201"
     fill="#ffffff"
     id="circle12" />
  <rect
     x="172.81087"
     y="191.94359"
     width="51.469509"
     height="22.78159"
     fill="#e6e6e6"
     id="rect14" />
  <rect
     x="275.74988"
     y="239.19429"
     width="51.469509"
     height="22.78159"
     fill="#e6e6e6"
     id="rect16" />
  <rect
     x="172.81087"
     y="310.07034"
     width="51.469509"
     height="22.781601"
     fill="#1940ff"
     id="rect18" />
  <rect
     x="275.74988"
     y="357.32101"
     width="51.469509"
     height="22.78159"
     fill="#1940ff"
     id="rect20" />
  <rect
     x="532.25366"
     y="380.94638"
     width="51.469509"
     height="22.78159"
     fill="#1940ff"
     id="rect22" />
  <rect
     x="480.78421"
     y="286.44501"
     width="51.469509"
     height="22.78159"
     fill="#e6e6e6"
     id="rect24" />
  <rect
     x="327.21942"
     y="286.44501"
     width="102.93903"
     height="22.78159"
     fill="#1940ff"
     id="rect26" />
  <rect
     x="327.21942"
     y="167.47447"
     width="102.93903"
     height="22.78159"
     fill="#1940ff"
     id="rect28" />
  <path
     d="m 121.34134,143.00536 v 286.03548 h 514.69518 v -286.0355 z m 513.00764,23.6958 h -49.61306 v -22.00824 h 49.61307 z M 328.23211,332.57052 v -22.00786 h 100.91362 v 22.00786 z m 100.91367,1.68753 v 22.00827 H 328.23206 v -22.00827 z m 0,-94.78239 v 22.00787 H 328.23206 v -22.00787 z m -100.91367,-1.68752 v -22.00828 h 100.91362 v 22.00828 z m 0,47.39119 v -22.00828 h 100.91362 v 22.00828 z m 100.91367,1.68752 v 22.00828 H 328.23206 V 286.86685 Z M 326.54459,261.48353 h -49.61307 v -22.00787 h 49.61307 z m 0,1.68752 v 22.00828 h -49.61307 v -22.00828 z m 0,23.6958 v 22.00828 h -49.61307 v -22.00828 z m 0,23.69581 v 22.00786 h -49.61307 v -22.00786 z m 104.28872,0 h 49.61303 v 22.00786 h -49.613 z m 0,-1.68753 v -22.00828 h 49.61303 v 22.00828 z m 0,-23.6958 v -22.00828 h 49.61303 v 22.00828 z m 0,-23.6958 v -22.00787 h 49.61303 v 22.00787 z m 0,-23.69539 v -22.00828 h 49.61303 v 22.00828 z m 0,-23.6958 v -22.00828 h 49.61303 v 22.00828 z m -1.68753,0 H 328.23206 v -22.00828 h 100.91367 z m -102.60119,0 h -49.61307 v -22.00828 h 49.61307 z m 0,1.68752 v 22.00828 h -49.61307 v -22.00828 z m -51.3006,22.00828 h -49.61395 v -22.00828 h 49.6139 z m 0,1.68752 v 22.00787 h -49.61395 v -22.00787 z m 0,23.69539 v 22.00828 h -49.61395 v -22.00828 z m 0,23.6958 v 22.00828 h -49.61395 v -22.00828 z m 0,23.69581 v 22.00786 h -49.61395 v -22.00786 z m 0,23.69539 v 22.00827 h -49.61395 v -22.00827 z m 1.68753,0 h 49.61307 v 22.00827 h -49.61307 z m 49.61307,23.6958 v 22.00786 h -49.61307 v -22.00786 z m 1.68752,0 h 100.91362 v 22.00786 H 328.23206 Z m 102.6012,0 h 49.61303 v 22.00786 h -49.613 z m 0,-1.68753 v -22.00827 h 49.61303 v 22.00827 z m 51.30059,-22.00827 h 49.6139 v 22.00827 h -49.614 z m 0,-1.68753 v -22.00786 h 49.6139 v 22.00786 z m 0,-23.69539 v -22.00828 h 49.6139 v 22.00828 z m 0,-23.6958 v -22.00828 h 49.6139 v 22.00828 z m 0,-23.6958 v -22.00787 h 49.6139 v 22.00787 z m 0,-23.69539 v -22.00828 h 49.6139 v 22.00828 z m 0,-23.6958 v -22.00828 h 49.6139 v 22.00828 z m 0,-23.6958 v -22.00787 h 49.6139 v 22.00787 z m -1.68752,0 h -49.61304 v -22.00787 h 49.613 z m -51.3006,0 H 328.23206 v -22.00787 h 100.91367 z m -102.60119,0 h -49.61307 v -22.00787 h 49.61307 z m -51.3006,0 h -49.61395 v -22.00787 h 49.6139 z m 0,1.68752 v 22.00828 h -49.61395 v -22.00828 z m -51.30142,22.00828 H 174.3295 v -22.00828 h 49.61307 z m 0,1.68752 v 22.00828 H 174.3295 v -22.00828 z m 0,23.6958 v 22.00787 H 174.3295 v -22.00787 z m 0,23.69539 v 22.00828 H 174.3295 v -22.00828 z m 0,23.6958 v 22.00828 H 174.3295 v -22.00828 z m 0,23.69581 v 22.00786 H 174.3295 v -22.00786 z m 0,23.69539 v 22.00827 H 174.3295 v -22.00827 z m 0,23.6958 v 22.00786 H 174.3295 v -22.00786 z m 1.68752,0 h 49.6139 v 22.00786 h -49.61395 z m 49.6139,23.69539 v 22.00868 h -49.61395 v -22.00868 z m 1.68753,0 h 49.61307 v 22.00868 h -49.61307 z m 51.30059,0 h 100.91362 v 22.00868 H 328.23206 Z m 102.6012,0 h 49.61303 v 22.00868 h -49.613 z m 51.30059,0 h 49.6139 v 22.00868 h -49.614 z m 0,-1.68753 v -22.00786 h 49.6139 v 22.00786 z m 51.30144,-22.00786 h 49.61308 v 22.00786 h -49.61308 z m 0,-1.68753 v -22.00827 h 49.61308 v 22.00827 z m 0,-23.6958 v -22.00786 h 49.61308 v 22.00786 z m 0,-23.69539 v -22.00828 h 49.61308 v 22.00828 z m 0,-23.6958 v -22.00828 h 49.61308 v 22.00828 z m 0,-23.6958 v -22.00787 h 49.61308 v 22.00787 z m 0,-23.69539 v -22.00828 h 49.61308 v 22.00828 z m 0,-23.6958 v -22.00828 h 49.61308 v 22.00828 z m 0,-23.6958 v -22.00787 h 49.61308 v 22.00787 z m 0,-23.69539 v -22.00823 h 49.61308 v 22.00828 z m -1.68752,0 h -49.614 v -22.00823 h 49.6139 z m -51.30142,0 h -49.61306 v -22.00823 h 49.613 z m -51.3006,0 H 328.23206 v -22.00823 h 100.91367 z m -102.60119,0 h -49.61309 v -22.00823 h 49.61307 z m -51.3006,0 h -49.61397 v -22.00823 h 49.6139 z m -51.30142,0 H 174.3295 v -22.00823 h 49.61307 z m 0,1.68752 v 22.00787 H 174.3295 v -22.00787 z m -51.3006,22.00787 H 123.0289 v -22.00787 h 49.61307 z m 0,1.68752 v 22.00828 H 123.0289 v -22.00828 z m 0,23.6958 v 22.00828 H 123.0289 v -22.00828 z m 0,23.6958 v 22.00787 H 123.0289 v -22.00787 z m 0,23.69539 v 22.00828 H 123.0289 v -22.00828 z m 0,23.6958 v 22.00828 H 123.0289 v -22.00828 z m 0,23.69581 v 22.00786 H 123.0289 v -22.00786 z m 0,23.69539 v 22.00827 H 123.0289 v -22.00827 z m 0,23.6958 v 22.00786 H 123.0289 v -22.00786 z m 0,23.69539 v 22.00868 H 123.0289 v -22.00868 z m 1.68753,0 h 49.61307 v 22.00868 H 174.3295 Z m 49.61307,23.69621 v 22.00787 H 174.3295 v -22.00787 z m 1.68752,0 h 49.6139 v 22.00787 h -49.61397 z m 51.30143,0 h 49.61307 v 22.00787 h -49.61309 z m 51.30059,0 h 100.9136 v 22.00787 H 328.23206 Z m 102.6012,0 h 49.61301 v 22.00787 h -49.613 z m 51.30059,0 h 49.6139 v 22.00787 h -49.614 z m 51.30142,0 h 49.61308 v 22.00787 h -49.61308 z m 0,-1.68752 v -22.00869 h 49.61308 v 22.00868 z m 51.3006,-22.00869 h 49.61307 v 22.00868 h -49.61309 z m 0,-1.68753 v -22.00786 h 49.61307 v 22.00786 z m 0,-23.69539 v -22.00827 h 49.61307 v 22.00827 z m 0,-23.6958 v -22.00786 h 49.61307 v 22.00786 z m 0,-23.69539 v -22.00828 h 49.61307 v 22.00828 z m 0,-23.6958 v -22.00828 h 49.61307 v 22.00828 z m 0,-23.6958 v -22.00787 h 49.61307 v 22.00787 z m 0,-23.69539 v -22.00828 h 49.61307 v 22.00828 z m 0,-23.6958 v -22.00828 h 49.61307 v 22.00828 z m 0,-23.6958 v -22.00787 h 49.61307 v 22.00787 z M 172.64197,144.69292 V 166.7012 H 123.0289 V 144.69292 Z M 123.0289,405.34545 h 49.61307 v 22.00787 H 123.0289 Z m 461.707,22.00787 v -22.00787 h 49.61307 v 22.00787 z"
     fill="#e6e6e6"
     id="path30" />
</svg>
